<svg xmlns="http://www.w3.org/2000/svg" viewBox="0 0 900 620" role="img" aria-label="Smart garage illustration"><rect width="900" height="620" rx="36" fill="#ecfeff"/><rect x="110" y="150" width="680" height="340" rx="28" fill="#0f172a"/><rect x="150" y="195" width="600" height="255" rx="18" fill="#ffffff"/><rect x="190" y="235" width="130" height="160" rx="16" fill="#ccfbf1"/><rect x="385" y="235" width="130" height="160" rx="16" fill="#fef3c7"/><rect x="580" y="235" width="130" height="160" rx="16" fill="#ccfbf1"/><text x="225" y="325" font-size="60" font-family="Arial" font-weight="800" fill="#0f766e">P</text><text x="420" y="325" font-size="60" font-family="Arial" font-weight="800" fill="#f59e0b">P</text><text x="615" y="325" font-size="60" font-family="Arial" font-weight="800" fill="#0f766e">P</text><rect x="235" y="395" width="90" height="35" rx="14" fill="#0f766e"/><rect x="545" y="395" width="95" height="35" rx="14" fill="#0f766e"/><circle cx="260" cy="430" r="15" fill="#0f172a"/><circle cx="610" cy="430" r="15" fill="#0f172a"/><rect x="356" y="90" width="190" height="70" rx="18" fill="#0f766e"/><text x="390" y="135" font-size="28" font-family="Arial" font-weight="800" fill="white">SMART</text><circle cx="730" cy="115" r="42" fill="#f59e0b" opacity=".9"/><path d="M90 505h720" stroke="#0f766e" stroke-width="8" stroke-linecap="round"/></svg>
